<?xml version="1.0" encoding="UTF-8"?>
<svg width="69px" height="79px" viewBox="0 0 69 79" version="1.1" xmlns="http://www.w3.org/2000/svg" xmlns:xlink="http://www.w3.org/1999/xlink">
    <title>Path</title>
    <g id="Page-1" stroke="none" stroke-width="1" fill="none" fill-rule="evenodd">
        <g id="arrow.clockwise" transform="translate(-1415.000000, -619.000000)" fill="#000000" fill-rule="nonzero">
            <g id="Symbols" transform="translate(527.172940, 611.771500)">
                <g id="Regular-S" transform="translate(888.593000, 7.868190)">
                    <path d="M0,43.9384103 C0,48.6910103 0.878906667,53.1262436 2.63672,57.2441103 C4.39454667,61.3619103 6.83596,64.983327 9.96096,68.1083603 C13.08596,71.2333603 16.70736,73.6829036 20.82516,75.4569903 C24.9430267,77.231077 29.3619933,78.1181203 34.08206,78.1181203 C38.80206,78.1181203 43.2209933,77.231077 47.33886,75.4569903 C51.4567267,73.6829036 55.07816,71.2333603 58.20316,68.1083603 C61.32816,64.983327 63.76956,61.3619103 65.52736,57.2441103 C67.28516,53.1262436 68.16406,48.6910103 68.16406,43.9384103 C68.16406,42.8967436 67.82226,42.0341103 67.13866,41.3505103 C66.45506,40.6669103 65.57616,40.3251103 64.50196,40.3251103 C63.4928267,40.3251103 62.6790267,40.6669103 62.06056,41.3505103 C61.4420933,42.0341103 61.13286,42.8967436 61.13286,43.9384103 C61.13286,47.714477 60.43296,51.2382436 59.03316,54.5097103 C57.6334267,57.781177 55.6965933,60.6539103 53.22266,63.1279103 C50.7487267,65.601857 47.8759933,67.538697 44.60446,68.9384303 C41.3329933,70.3381703 37.8255267,71.0380403 34.08206,71.0380403 C30.3385267,71.0380403 26.8310267,70.3381703 23.55956,68.9384303 C20.2880933,67.538697 17.41536,65.601857 14.94136,63.1279103 C12.4674267,60.6539103 10.5305933,57.781177 9.13086,54.5097103 C7.73112667,51.2382436 7.03126,47.714477 7.03126,43.9384103 C7.03126,40.1949436 7.73112667,36.687477 9.13086,33.4160103 C10.5305933,30.144477 12.4674267,27.2717436 14.94136,24.7978103 C17.41536,22.323877 20.2880933,20.3870436 23.55956,18.9873103 C26.8310267,17.5875103 30.3385267,16.8876103 34.08206,16.8876103 C35.3515933,16.8876103 36.56416,16.9283103 37.71976,17.0097103 C38.87536,17.0911103 39.9576933,17.2457436 40.96676,17.4736103 L33.4738914,21.5127994 C33.1158247,21.8708661 32.8554247,22.2533661 32.6926914,22.6602994 C32.5298914,23.0671661 32.4484914,23.4984661 32.4484914,23.9541994 C32.4484914,24.9633327 32.7821581,25.8015661 33.4494914,26.4688994 C34.1168247,27.1362327 34.9387581,27.4698994 35.9152914,27.4698994 C36.9894914,27.4698994 37.8195581,27.1443661 38.4054914,26.4932994 L51.07426,17.1806103 C51.72526,16.4970103 52.05076,15.6506436 52.05076,14.6415103 C52.05076,13.664977 51.72526,12.8349103 51.07426,12.1513103 L40.9444914,1.0742 C40.3260247,0.358066667 39.4796914,0 38.4054914,0 C37.4614914,0 36.6558247,0.349933333 35.9884914,1.0498 C35.3211581,1.74966667 34.9874914,2.60416667 34.9874914,3.6133 C34.9874914,4.06903333 35.0688914,4.50846667 35.2316914,4.9316 C35.3944247,5.3548 35.6385581,5.74543333 35.9640914,6.1035 L39.55076,10.3447103 C38.6718933,10.1819103 37.7767267,10.0598436 36.86526,9.9785103 C35.9537933,9.8971103 35.02606,9.8564103 34.08206,9.8564103 C29.3619933,9.8564103 24.9430267,10.7353103 20.82516,12.4931103 C16.70736,14.2509103 13.08596,16.6923103 9.96096,19.8173103 C6.83596,22.9423103 4.39454667,26.5637436 2.63672,30.6816103 C0.878906667,34.7994103 0,39.2183436 0,43.9384103 Z" id="Path"></path>
                </g>
            </g>
        </g>
    </g>
</svg>